<mxfile host="app.diagrams.net" agent="Mozilla/5.0 (Macintosh; Intel Mac OS X 10_15_7) AppleWebKit/537.36 (KHTML, like Gecko) Chrome/133.0.0.0 Safari/537.36" version="26.0.16">
  <diagram name="Page-1" id="AHf6879yrCisYdVrGaV_">
    <mxGraphModel dx="1434" dy="761" grid="1" gridSize="10" guides="1" tooltips="1" connect="1" arrows="1" fold="1" page="1" pageScale="1" pageWidth="850" pageHeight="1100" math="0" shadow="0">
      <root>
        <mxCell id="0" />
        <mxCell id="1" parent="0" />
        <mxCell id="2" value="ESG Reports " style="whiteSpace=wrap;strokeWidth=2;" parent="1" vertex="1">
          <mxGeometry x="30" y="274" width="95" height="54" as="geometry" />
        </mxCell>
        <mxCell id="23" value="" style="curved=1;startArrow=none;endArrow=block;exitX=1;exitY=0.5;entryX=0;entryY=0.5;" parent="1" source="2" edge="1">
          <mxGeometry relative="1" as="geometry">
            <Array as="points" />
            <mxPoint x="225" y="301" as="targetPoint" />
          </mxGeometry>
        </mxCell>
        <mxCell id="2hqWEApvwLhaIVUh47O2-51" style="edgeStyle=orthogonalEdgeStyle;rounded=0;orthogonalLoop=1;jettySize=auto;html=1;entryX=0.5;entryY=1;entryDx=0;entryDy=0;" edge="1" parent="1" source="2hqWEApvwLhaIVUh47O2-46" target="2hqWEApvwLhaIVUh47O2-53">
          <mxGeometry relative="1" as="geometry">
            <mxPoint x="1082" y="350" as="targetPoint" />
          </mxGeometry>
        </mxCell>
        <mxCell id="2hqWEApvwLhaIVUh47O2-46" value="ESG Frameworks (industry benchmarks)  " style="whiteSpace=wrap;strokeWidth=2;" vertex="1" parent="1">
          <mxGeometry x="30" y="420" width="122" height="54" as="geometry" />
        </mxCell>
        <mxCell id="2hqWEApvwLhaIVUh47O2-50" style="edgeStyle=orthogonalEdgeStyle;rounded=0;orthogonalLoop=1;jettySize=auto;html=1;entryX=0.5;entryY=1;entryDx=0;entryDy=0;" edge="1" parent="1" source="2hqWEApvwLhaIVUh47O2-47" target="2hqWEApvwLhaIVUh47O2-48">
          <mxGeometry relative="1" as="geometry" />
        </mxCell>
        <mxCell id="2hqWEApvwLhaIVUh47O2-73" value="" style="edgeStyle=orthogonalEdgeStyle;rounded=0;orthogonalLoop=1;jettySize=auto;html=1;" edge="1" parent="1" source="2hqWEApvwLhaIVUh47O2-47" target="2hqWEApvwLhaIVUh47O2-72">
          <mxGeometry relative="1" as="geometry" />
        </mxCell>
        <mxCell id="2hqWEApvwLhaIVUh47O2-75" style="edgeStyle=orthogonalEdgeStyle;rounded=0;orthogonalLoop=1;jettySize=auto;html=1;entryX=0.5;entryY=1;entryDx=0;entryDy=0;" edge="1" parent="1" source="2hqWEApvwLhaIVUh47O2-47" target="2hqWEApvwLhaIVUh47O2-70">
          <mxGeometry relative="1" as="geometry" />
        </mxCell>
        <mxCell id="2hqWEApvwLhaIVUh47O2-47" value="Data Extraction of ESG reports&amp;nbsp;" style="ellipse;whiteSpace=wrap;html=1;" vertex="1" parent="1">
          <mxGeometry x="225" y="270" width="130" height="71" as="geometry" />
        </mxCell>
        <mxCell id="2hqWEApvwLhaIVUh47O2-48" value="OCR Scraper, DeepSeek" style="rounded=1;whiteSpace=wrap;html=1;" vertex="1" parent="1">
          <mxGeometry x="180" y="130" width="120" height="40" as="geometry" />
        </mxCell>
        <mxCell id="2hqWEApvwLhaIVUh47O2-61" style="edgeStyle=orthogonalEdgeStyle;rounded=0;orthogonalLoop=1;jettySize=auto;html=1;entryX=0;entryY=0.5;entryDx=0;entryDy=0;" edge="1" parent="1" source="2hqWEApvwLhaIVUh47O2-49" target="2hqWEApvwLhaIVUh47O2-54">
          <mxGeometry relative="1" as="geometry" />
        </mxCell>
        <mxCell id="2hqWEApvwLhaIVUh47O2-49" value="Data storage in PostGreSQL" style="shape=cylinder3;whiteSpace=wrap;html=1;boundedLbl=1;backgroundOutline=1;size=15;" vertex="1" parent="1">
          <mxGeometry x="807" y="234" width="100" height="134" as="geometry" />
        </mxCell>
        <mxCell id="2hqWEApvwLhaIVUh47O2-52" value="Score matrix" style="whiteSpace=wrap;strokeWidth=2;" vertex="1" parent="1">
          <mxGeometry x="38" y="510" width="122" height="54" as="geometry" />
        </mxCell>
        <mxCell id="2hqWEApvwLhaIVUh47O2-77" style="edgeStyle=orthogonalEdgeStyle;rounded=0;orthogonalLoop=1;jettySize=auto;html=1;entryX=0.5;entryY=1;entryDx=0;entryDy=0;" edge="1" parent="1" source="2hqWEApvwLhaIVUh47O2-53" target="2hqWEApvwLhaIVUh47O2-68">
          <mxGeometry relative="1" as="geometry" />
        </mxCell>
        <mxCell id="2hqWEApvwLhaIVUh47O2-78" style="edgeStyle=orthogonalEdgeStyle;rounded=0;orthogonalLoop=1;jettySize=auto;html=1;entryX=0.5;entryY=1;entryDx=0;entryDy=0;" edge="1" parent="1" target="2hqWEApvwLhaIVUh47O2-69">
          <mxGeometry relative="1" as="geometry">
            <mxPoint x="1270" y="250" as="sourcePoint" />
            <mxPoint x="930" y="168.5" as="targetPoint" />
          </mxGeometry>
        </mxCell>
        <mxCell id="2hqWEApvwLhaIVUh47O2-81" value="" style="edgeStyle=orthogonalEdgeStyle;rounded=0;orthogonalLoop=1;jettySize=auto;html=1;" edge="1" parent="1" source="2hqWEApvwLhaIVUh47O2-53" target="2hqWEApvwLhaIVUh47O2-80">
          <mxGeometry relative="1" as="geometry" />
        </mxCell>
        <mxCell id="2hqWEApvwLhaIVUh47O2-53" value="Develop scoring system (out of 10)" style="ellipse;whiteSpace=wrap;html=1;fillColor=light-dark(#FFF4C3,var(--ge-dark-color, #121212));" vertex="1" parent="1">
          <mxGeometry x="1204" y="250.5" width="143" height="100" as="geometry" />
        </mxCell>
        <mxCell id="2hqWEApvwLhaIVUh47O2-62" style="edgeStyle=orthogonalEdgeStyle;rounded=0;orthogonalLoop=1;jettySize=auto;html=1;entryX=0;entryY=0.5;entryDx=0;entryDy=0;" edge="1" parent="1" source="2hqWEApvwLhaIVUh47O2-54" target="2hqWEApvwLhaIVUh47O2-53">
          <mxGeometry relative="1" as="geometry" />
        </mxCell>
        <mxCell id="2hqWEApvwLhaIVUh47O2-54" value="Ensure accuracy and reliability of extracted ESG info" style="ellipse;whiteSpace=wrap;html=1;" vertex="1" parent="1">
          <mxGeometry x="977" y="258.5" width="140" height="84" as="geometry" />
        </mxCell>
        <mxCell id="2hqWEApvwLhaIVUh47O2-55" style="edgeStyle=orthogonalEdgeStyle;rounded=0;orthogonalLoop=1;jettySize=auto;html=1;" edge="1" parent="1" source="2hqWEApvwLhaIVUh47O2-52" target="2hqWEApvwLhaIVUh47O2-53">
          <mxGeometry relative="1" as="geometry" />
        </mxCell>
        <mxCell id="2hqWEApvwLhaIVUh47O2-60" value="" style="edgeStyle=orthogonalEdgeStyle;rounded=0;orthogonalLoop=1;jettySize=auto;html=1;" edge="1" parent="1" source="2hqWEApvwLhaIVUh47O2-56" target="2hqWEApvwLhaIVUh47O2-63">
          <mxGeometry relative="1" as="geometry">
            <mxPoint x="683.5" y="222" as="targetPoint" />
          </mxGeometry>
        </mxCell>
        <mxCell id="2hqWEApvwLhaIVUh47O2-56" value="Categorize and structure ESG related data" style="ellipse;whiteSpace=wrap;html=1;" vertex="1" parent="1">
          <mxGeometry x="620" y="260" width="127" height="81" as="geometry" />
        </mxCell>
        <mxCell id="2hqWEApvwLhaIVUh47O2-58" style="edgeStyle=orthogonalEdgeStyle;rounded=0;orthogonalLoop=1;jettySize=auto;html=1;entryX=0;entryY=0.5;entryDx=0;entryDy=0;entryPerimeter=0;" edge="1" parent="1" source="2hqWEApvwLhaIVUh47O2-56" target="2hqWEApvwLhaIVUh47O2-49">
          <mxGeometry relative="1" as="geometry" />
        </mxCell>
        <mxCell id="2hqWEApvwLhaIVUh47O2-63" value="Finetune FinBERT" style="rounded=1;whiteSpace=wrap;html=1;" vertex="1" parent="1">
          <mxGeometry x="623.5" y="150" width="120" height="60" as="geometry" />
        </mxCell>
        <mxCell id="2hqWEApvwLhaIVUh47O2-67" value="Design a human-in-the-loop system to allow ESG analysts to review and correct the algorithm&#39;s output" style="rounded=1;whiteSpace=wrap;html=1;" vertex="1" parent="1">
          <mxGeometry x="1352" y="24" width="188" height="100" as="geometry" />
        </mxCell>
        <mxCell id="2hqWEApvwLhaIVUh47O2-68" value="Implement confidence scoring mechanisms to assess reliability of extracted data" style="rounded=1;whiteSpace=wrap;html=1;" vertex="1" parent="1">
          <mxGeometry x="1175.5" y="24" width="173" height="100" as="geometry" />
        </mxCell>
        <mxCell id="2hqWEApvwLhaIVUh47O2-69" value="Develop validation system that cross-checks extracted data against established ESG frameworks&amp;nbsp;" style="rounded=1;whiteSpace=wrap;html=1;" vertex="1" parent="1">
          <mxGeometry x="990" y="24" width="180" height="100" as="geometry" />
        </mxCell>
        <mxCell id="2hqWEApvwLhaIVUh47O2-70" value="Impement methods to handle missing data and ensure fair comparison" style="rounded=1;whiteSpace=wrap;html=1;" vertex="1" parent="1">
          <mxGeometry x="355" y="110" width="120" height="60" as="geometry" />
        </mxCell>
        <mxCell id="2hqWEApvwLhaIVUh47O2-74" style="edgeStyle=orthogonalEdgeStyle;rounded=0;orthogonalLoop=1;jettySize=auto;html=1;entryX=0;entryY=0.5;entryDx=0;entryDy=0;" edge="1" parent="1" source="2hqWEApvwLhaIVUh47O2-72" target="2hqWEApvwLhaIVUh47O2-56">
          <mxGeometry relative="1" as="geometry" />
        </mxCell>
        <mxCell id="2hqWEApvwLhaIVUh47O2-72" value="Store raw data in PostGreSQL" style="shape=cylinder3;whiteSpace=wrap;html=1;boundedLbl=1;backgroundOutline=1;size=15;" vertex="1" parent="1">
          <mxGeometry x="440" y="238" width="90" height="126" as="geometry" />
        </mxCell>
        <mxCell id="2hqWEApvwLhaIVUh47O2-79" style="edgeStyle=orthogonalEdgeStyle;rounded=0;orthogonalLoop=1;jettySize=auto;html=1;entryX=0.582;entryY=1.02;entryDx=0;entryDy=0;entryPerimeter=0;exitX=0.5;exitY=0;exitDx=0;exitDy=0;" edge="1" parent="1" source="2hqWEApvwLhaIVUh47O2-53" target="2hqWEApvwLhaIVUh47O2-67">
          <mxGeometry relative="1" as="geometry">
            <mxPoint x="1262" y="260" as="sourcePoint" />
            <Array as="points">
              <mxPoint x="1461" y="251" />
            </Array>
          </mxGeometry>
        </mxCell>
        <mxCell id="2hqWEApvwLhaIVUh47O2-84" value="" style="edgeStyle=orthogonalEdgeStyle;rounded=0;orthogonalLoop=1;jettySize=auto;html=1;" edge="1" parent="1" source="2hqWEApvwLhaIVUh47O2-80" target="2hqWEApvwLhaIVUh47O2-83">
          <mxGeometry relative="1" as="geometry" />
        </mxCell>
        <mxCell id="2hqWEApvwLhaIVUh47O2-87" value="" style="edgeStyle=orthogonalEdgeStyle;rounded=0;orthogonalLoop=1;jettySize=auto;html=1;" edge="1" parent="1" source="2hqWEApvwLhaIVUh47O2-80" target="2hqWEApvwLhaIVUh47O2-86">
          <mxGeometry relative="1" as="geometry" />
        </mxCell>
        <mxCell id="2hqWEApvwLhaIVUh47O2-80" value="Develop feeedback-loop system to continuously update and refine model based on new data and evolving ESG standards" style="ellipse;whiteSpace=wrap;html=1;" vertex="1" parent="1">
          <mxGeometry x="1510" y="220" width="280" height="160.5" as="geometry" />
        </mxCell>
        <mxCell id="2hqWEApvwLhaIVUh47O2-83" value="Investigate transfer learning techniques to adapt model to new industries and reporting styles" style="rounded=1;whiteSpace=wrap;html=1;" vertex="1" parent="1">
          <mxGeometry x="1580" y="30" width="190" height="100" as="geometry" />
        </mxCell>
        <mxCell id="2hqWEApvwLhaIVUh47O2-85" value="Initial Data" style="shape=process;whiteSpace=wrap;html=1;backgroundOutline=1;fillColor=light-dark(#FFCCCC,var(--ge-dark-color, #121212));" vertex="1" parent="1">
          <mxGeometry x="8.5" y="178.5" width="165" height="80" as="geometry" />
        </mxCell>
        <mxCell id="2hqWEApvwLhaIVUh47O2-89" value="" style="edgeStyle=orthogonalEdgeStyle;rounded=0;orthogonalLoop=1;jettySize=auto;html=1;" edge="1" parent="1" source="2hqWEApvwLhaIVUh47O2-86" target="2hqWEApvwLhaIVUh47O2-88">
          <mxGeometry relative="1" as="geometry" />
        </mxCell>
        <mxCell id="2hqWEApvwLhaIVUh47O2-91" value="" style="edgeStyle=orthogonalEdgeStyle;rounded=0;orthogonalLoop=1;jettySize=auto;html=1;" edge="1" parent="1" source="2hqWEApvwLhaIVUh47O2-86" target="2hqWEApvwLhaIVUh47O2-90">
          <mxGeometry relative="1" as="geometry" />
        </mxCell>
        <mxCell id="2hqWEApvwLhaIVUh47O2-93" value="" style="edgeStyle=orthogonalEdgeStyle;rounded=0;orthogonalLoop=1;jettySize=auto;html=1;" edge="1" parent="1" source="2hqWEApvwLhaIVUh47O2-86" target="2hqWEApvwLhaIVUh47O2-90">
          <mxGeometry relative="1" as="geometry" />
        </mxCell>
        <mxCell id="2hqWEApvwLhaIVUh47O2-94" value="" style="edgeStyle=orthogonalEdgeStyle;rounded=0;orthogonalLoop=1;jettySize=auto;html=1;" edge="1" parent="1" source="2hqWEApvwLhaIVUh47O2-86" target="2hqWEApvwLhaIVUh47O2-90">
          <mxGeometry relative="1" as="geometry" />
        </mxCell>
        <mxCell id="2hqWEApvwLhaIVUh47O2-96" style="edgeStyle=orthogonalEdgeStyle;rounded=0;orthogonalLoop=1;jettySize=auto;html=1;entryX=0;entryY=0.5;entryDx=0;entryDy=0;" edge="1" parent="1" source="2hqWEApvwLhaIVUh47O2-86" target="2hqWEApvwLhaIVUh47O2-95">
          <mxGeometry relative="1" as="geometry" />
        </mxCell>
        <mxCell id="2hqWEApvwLhaIVUh47O2-86" value="Develop interactive dashboard" style="ellipse;whiteSpace=wrap;html=1;fillColor=light-dark(#FFF4C3,var(--ge-dark-color, #121212));" vertex="1" parent="1">
          <mxGeometry x="1870" y="220" width="220" height="160.5" as="geometry" />
        </mxCell>
        <mxCell id="2hqWEApvwLhaIVUh47O2-88" value="Analyze ESG scores across various companies and subscores" style="rounded=1;whiteSpace=wrap;html=1;" vertex="1" parent="1">
          <mxGeometry x="1850" y="29.75" width="190" height="90.25" as="geometry" />
        </mxCell>
        <mxCell id="2hqWEApvwLhaIVUh47O2-90" value="Explore long-term trends in ESG perf &amp;amp; how they correlate with financial indicators" style="ellipse;whiteSpace=wrap;html=1;fillColor=light-dark(#FFF4C3,var(--ge-dark-color, #121212));" vertex="1" parent="1">
          <mxGeometry x="2180" y="113.5" width="220" height="160.5" as="geometry" />
        </mxCell>
        <mxCell id="2hqWEApvwLhaIVUh47O2-95" value="Develop a model that could track and project the financial impact of consistent or improving ESG practices" style="ellipse;whiteSpace=wrap;html=1;fillColor=light-dark(#FFF4C3,var(--ge-dark-color, #121212));" vertex="1" parent="1">
          <mxGeometry x="2180" y="328" width="220" height="160.5" as="geometry" />
        </mxCell>
      </root>
    </mxGraphModel>
  </diagram>
</mxfile>
